<svg xmlns="http://www.w3.org/2000/svg" width="450" height="250" viewBox="0 0 450 250" aria-label="CompileBless merit counter 1024"><style>:root{color-scheme:light dark}.bt{fill:#6f8b6d}.bl{fill:#4f6750}.br{fill:#344a35}.dt{fill:#7aa27c}.dl{fill:#5b7d5d}.dr{fill:#3d5d40}.rt{fill:#b63f2d}.rl{fill:#8f2b22}.rr{fill:#6f1b18}.k{fill:#f4d45a;font:700 13px monospace}.t{fill:#55351e;font:700 15px monospace}.u{fill:#8a5b2a;font:700 12px monospace}.f{fill:#76f28d;font:700 11px monospace;opacity:0}.sm{fill:#b7bdc1}.g{filter:drop-shadow(0 0 0 transparent)}.a{animation:ra 3.2s linear infinite}.b{animation:rb 3.2s linear 1.6s infinite}.ember{animation:fl 1.4s ease-in-out infinite}@keyframes fl{50%{opacity:.65}}@keyframes ra{15%{opacity:.72}to{opacity:0;transform:translate(-10px,-34px) scale(.78)}}@keyframes rb{20%{opacity:.68}to{opacity:0;transform:translate(8px,-30px) scale(.74)}}@media (prefers-color-scheme:dark){.t{fill:#ffd88a}.u,.k{fill:#e0bb72}.g{filter:drop-shadow(0 0 4px rgba(120,255,180,.28))}.ember{filter:drop-shadow(0 0 5px rgba(255,163,58,.6))}.sm{fill:#c7d2d9}.bt{fill:#7b9f7d}.bl{fill:#5f7f61}.br{fill:#466048}.rt{fill:#c6523d}.rl{fill:#a33629}.rr{fill:#7d211d}}</style><g class="g" shape-rendering="crispEdges"><polygon class="dt" points="86,179 92,182 86,185 81,182"/><polygon class="dl" points="81,182 86,179 86,190 81,193"/><polygon class="dr" points="92,182 86,185 86,196 92,193"/><polygon class="dt" points="105,190 110,193 105,196 100,193"/><polygon class="dl" points="100,193 105,190 105,201 100,204"/><polygon class="dr" points="110,193 105,196 105,207 110,204"/><polygon class="dt" points="124,201 129,204 124,207 119,204"/><polygon class="dl" points="119,204 124,201 124,212 119,215"/><polygon class="dr" points="129,204 124,207 124,218 129,215"/><polygon class="bt" points="94,159 148,190 129,201 75,170"/><polygon class="bl" points="75,170 94,159 94,168 75,179"/><polygon class="br" points="148,190 129,201 129,210 148,199"/><polygon class="dt" points="110,136 155,162 120,183 75,157"/><polygon class="dl" points="75,157 110,136 110,155 75,176"/><polygon class="dr" points="155,162 120,183 120,202 155,181"/><polygon class="bt" points="123,121 155,140 130,154 98,136"/><polygon class="bl" points="98,136 123,121 123,132 98,147"/><polygon class="br" points="155,140 130,154 130,165 155,151"/><g transform="translate(122 118)"><rect x="4" y="0" width="12" height="4" fill="#f4d45a"/><rect x="0" y="4" width="4" height="4" fill="#f4d45a"/><rect x="16" y="4" width="4" height="4" fill="#f4d45a"/><rect x="0" y="8" width="4" height="4" fill="#f4d45a"/><rect x="8" y="8" width="4" height="4" fill="#f4d45a"/><rect x="16" y="8" width="4" height="4" fill="#f4d45a"/><rect x="0" y="12" width="4" height="4" fill="#f4d45a"/><rect x="16" y="12" width="4" height="4" fill="#f4d45a"/><rect x="4" y="16" width="12" height="4" fill="#f4d45a"/></g><rect x="137" y="92" width="3" height="42" rx="1" fill="#7b1e1e"/><rect x="147" y="92" width="3" height="42" rx="1" fill="#7b1e1e"/><rect x="157" y="92" width="3" height="42" rx="1" fill="#7b1e1e"/><rect class="glow ember" x="136" y="88" width="5" height="5" fill="#ff9c3a"/><rect class="glow ember" x="146" y="88" width="5" height="5" fill="#ff9c3a"/><rect class="glow ember" x="156" y="88" width="5" height="5" fill="#ff9c3a"/><g transform="translate(136 84)"><rect class="sm" width="4" height="4"/><rect class="sm" x="4" y="-8" width="4" height="4"/><animateTransform attributeName="transform" type="translate" values="136 84;144 58;136 32" dur="3.6s" begin="0s" repeatCount="indefinite"/><animate attributeName="opacity" values=".8;.4;0" dur="3.6s" begin="0s" repeatCount="indefinite"/></g><g transform="translate(146 84)"><rect class="sm" width="4" height="4"/><rect class="sm" x="4" y="-8" width="4" height="4"/><animateTransform attributeName="transform" type="translate" values="146 84;139 58;146 32" dur="3.6s" begin="1.4s" repeatCount="indefinite"/><animate attributeName="opacity" values=".8;.4;0" dur="3.6s" begin="1.4s" repeatCount="indefinite"/></g><g transform="translate(156 84)"><rect class="sm" width="4" height="4"/><rect class="sm" x="4" y="-8" width="4" height="4"/><animateTransform attributeName="transform" type="translate" values="156 84;162 58;156 32" dur="3.6s" begin="2.2s" repeatCount="indefinite"/><animate attributeName="opacity" values=".8;.4;0" dur="3.6s" begin="2.2s" repeatCount="indefinite"/></g><polygon class="rt" points="316,128 376,163 339,184 279,150"/><polygon class="rl" points="279,150 316,128 316,160 279,182"/><polygon class="rr" points="376,163 339,184 339,216 376,195"/><rect x="322" y="118" width="40" height="4" fill="#2d160f" rx="2"/><text x="342" y="156" class="k" text-anchor="middle">MERIT</text><g class="glow"><text x="332" y="110" class="f a">+1 Merit</text><text x="338" y="122" class="f b">-1 Bug</text></g></g><text class="t g" x="225" y="224" text-anchor="middle">Engineers worldwide earned merit today: 1024</text></svg>