<svg xmlns="http://www.w3.org/2000/svg" width="450" height="250" viewBox="0 0 450 250" aria-label="CompileBless merit counter 1024"><style>:root{color-scheme:light dark}.bt{fill:#7d6a2c}.bl{fill:#65531f}.br{fill:#463813}.dt{fill:#a28b3d}.dl{fill:#705d23}.dr{fill:#564617}.rt{fill:#b63f2d}.rl{fill:#972c20}.rr{fill:#6f1b18}.k{fill:#f4d45a;font:700 12px monospace}.t{fill:#55351e;font:700 15px monospace}.u{fill:#8a5b2a;font:700 12px monospace}.f{fill:#76f28d;font:700 11px monospace;opacity:0}.sm{fill:#b7bdc1}.g{filter:drop-shadow(0 0 0 transparent)}.a{animation:ra 3.2s linear infinite}.b{animation:rb 3.2s linear 1.6s infinite}.ember{animation:fl 1.4s ease-in-out infinite}@keyframes fl{50%{opacity:.65}}@keyframes ra{15%{opacity:.72}to{opacity:0;transform:translate(-10px,-34px) scale(.78)}}@keyframes rb{20%{opacity:.68}to{opacity:0;transform:translate(8px,-30px) scale(.74)}}@media (prefers-color-scheme:dark){.t{fill:#ffd88a}.u,.k{fill:#e0bb72}.g{filter:drop-shadow(0 0 4px rgba(120,255,180,.28))}.ember{filter:drop-shadow(0 0 5px rgba(255,163,58,.6))}.sm{fill:#c7d2d9}.bt{fill:#907c36}.bl{fill:#766226}.br{fill:#534116}.rt{fill:#c6523d}.rl{fill:#ad3829}.rr{fill:#812320}}</style><g class="g" shape-rendering="crispEdges"><g transform="translate(68 116)"><rect x="12" y="0" width="16" height="4" fill="#8e7a35"/><rect x="8" y="4" width="8" height="4" fill="#8e7a35"/><rect x="24" y="4" width="8" height="4" fill="#8e7a35"/><rect x="4" y="8" width="8" height="4" fill="#8e7a35"/><rect x="28" y="8" width="8" height="4" fill="#8e7a35"/><rect x="4" y="12" width="8" height="4" fill="#8e7a35"/><rect x="24" y="12" width="12" height="4" fill="#8e7a35"/><rect x="0" y="16" width="12" height="4" fill="#8e7a35"/><rect x="20" y="16" width="8" height="4" fill="#8e7a35"/><rect x="0" y="20" width="12" height="4" fill="#8e7a35"/><rect x="16" y="20" width="8" height="4" fill="#8e7a35"/><rect x="4" y="24" width="16" height="4" fill="#8e7a35"/><rect x="8" y="28" width="12" height="4" fill="#8e7a35"/><rect x="4" y="32" width="8" height="4" fill="#8e7a35"/><rect x="16" y="32" width="8" height="4" fill="#8e7a35"/><rect x="0" y="36" width="8" height="4" fill="#8e7a35"/><rect x="20" y="36" width="8" height="4" fill="#8e7a35"/><rect x="0" y="40" width="8" height="4" fill="#8e7a35"/><rect x="20" y="40" width="12" height="4" fill="#8e7a35"/><rect x="4" y="44" width="8" height="4" fill="#8e7a35"/><rect x="16" y="44" width="8" height="4" fill="#8e7a35"/><rect x="8" y="48" width="12" height="4" fill="#8e7a35"/></g><g transform="translate(226 116) scale(-1 1) translate(-44 0)"><rect x="12" y="0" width="16" height="4" fill="#8e7a35"/><rect x="8" y="4" width="8" height="4" fill="#8e7a35"/><rect x="24" y="4" width="8" height="4" fill="#8e7a35"/><rect x="4" y="8" width="8" height="4" fill="#8e7a35"/><rect x="28" y="8" width="8" height="4" fill="#8e7a35"/><rect x="4" y="12" width="8" height="4" fill="#8e7a35"/><rect x="24" y="12" width="12" height="4" fill="#8e7a35"/><rect x="0" y="16" width="12" height="4" fill="#8e7a35"/><rect x="20" y="16" width="8" height="4" fill="#8e7a35"/><rect x="0" y="20" width="12" height="4" fill="#8e7a35"/><rect x="16" y="20" width="8" height="4" fill="#8e7a35"/><rect x="4" y="24" width="16" height="4" fill="#8e7a35"/><rect x="8" y="28" width="12" height="4" fill="#8e7a35"/><rect x="4" y="32" width="8" height="4" fill="#8e7a35"/><rect x="16" y="32" width="8" height="4" fill="#8e7a35"/><rect x="0" y="36" width="8" height="4" fill="#8e7a35"/><rect x="20" y="36" width="8" height="4" fill="#8e7a35"/><rect x="0" y="40" width="8" height="4" fill="#8e7a35"/><rect x="20" y="40" width="12" height="4" fill="#8e7a35"/><rect x="4" y="44" width="8" height="4" fill="#8e7a35"/><rect x="16" y="44" width="8" height="4" fill="#8e7a35"/><rect x="8" y="48" width="12" height="4" fill="#8e7a35"/></g><polygon class="bt" points="96,143 120,126 178,126 202,143 202,154 96,154"/><polygon fill="#2d2410" points="109,143 128,132 170,132 189,143 182,148 116,148"/><polygon fill="#d7c6a1" points="118,144 132,136 166,136 180,144 175,147 123,147" opacity=".75"/><polygon class="dt" points="100,153 118,147 180,147 198,153 190,167 108,167"/><polygon class="bl" points="104,167 114,157 184,157 194,167 189,195 109,195"/><polygon class="br" points="109,195 189,195 180,210 118,210"/><g transform="translate(98 154)"><rect x="0" y="0" width="8" height="4" fill="#cfb765"/><rect x="12" y="0" width="8" height="4" fill="#cfb765"/><rect x="24" y="0" width="8" height="4" fill="#cfb765"/><rect x="36" y="0" width="8" height="4" fill="#cfb765"/><rect x="48" y="0" width="8" height="4" fill="#cfb765"/><rect x="60" y="0" width="8" height="4" fill="#cfb765"/><rect x="72" y="0" width="8" height="4" fill="#cfb765"/><rect x="84" y="0" width="8" height="4" fill="#cfb765"/><rect x="96" y="0" width="8" height="4" fill="#cfb765"/><rect x="4" y="4" width="8" height="4" fill="#cfb765"/><rect x="16" y="4" width="8" height="4" fill="#cfb765"/><rect x="28" y="4" width="8" height="4" fill="#cfb765"/><rect x="40" y="4" width="8" height="4" fill="#cfb765"/><rect x="52" y="4" width="8" height="4" fill="#cfb765"/><rect x="64" y="4" width="8" height="4" fill="#cfb765"/><rect x="76" y="4" width="8" height="4" fill="#cfb765"/><rect x="88" y="4" width="8" height="4" fill="#cfb765"/></g><text x="149" y="193" fill="#e0c96d" font-size="17" font-weight="700" font-family="monospace" text-anchor="middle">招財進寶</text><g transform="translate(114 203)"><rect x="8" y="0" width="8" height="4" fill="#8b7330"/><rect x="4" y="4" width="16" height="4" fill="#8b7330"/><rect x="0" y="8" width="8" height="4" fill="#8b7330"/><rect x="16" y="8" width="8" height="4" fill="#8b7330"/><rect x="4" y="12" width="16" height="4" fill="#8b7330"/><rect x="4" y="16" width="16" height="4" fill="#8b7330"/><rect x="4" y="20" width="4" height="4" fill="#8b7330"/><rect x="16" y="20" width="4" height="4" fill="#8b7330"/><rect x="0" y="24" width="8" height="4" fill="#8b7330"/><rect x="16" y="24" width="8" height="4" fill="#8b7330"/><rect x="4" y="28" width="16" height="4" fill="#8b7330"/></g><g transform="translate(142 205)"><rect x="8" y="0" width="8" height="4" fill="#8b7330"/><rect x="4" y="4" width="16" height="4" fill="#8b7330"/><rect x="0" y="8" width="8" height="4" fill="#8b7330"/><rect x="16" y="8" width="8" height="4" fill="#8b7330"/><rect x="4" y="12" width="16" height="4" fill="#8b7330"/><rect x="4" y="16" width="16" height="4" fill="#8b7330"/><rect x="4" y="20" width="4" height="4" fill="#8b7330"/><rect x="16" y="20" width="4" height="4" fill="#8b7330"/><rect x="0" y="24" width="8" height="4" fill="#8b7330"/><rect x="16" y="24" width="8" height="4" fill="#8b7330"/><rect x="4" y="28" width="16" height="4" fill="#8b7330"/></g><g transform="translate(170 203)"><rect x="8" y="0" width="8" height="4" fill="#8b7330"/><rect x="4" y="4" width="16" height="4" fill="#8b7330"/><rect x="0" y="8" width="8" height="4" fill="#8b7330"/><rect x="16" y="8" width="8" height="4" fill="#8b7330"/><rect x="4" y="12" width="16" height="4" fill="#8b7330"/><rect x="4" y="16" width="16" height="4" fill="#8b7330"/><rect x="4" y="20" width="4" height="4" fill="#8b7330"/><rect x="16" y="20" width="4" height="4" fill="#8b7330"/><rect x="0" y="24" width="8" height="4" fill="#8b7330"/><rect x="16" y="24" width="8" height="4" fill="#8b7330"/><rect x="4" y="28" width="16" height="4" fill="#8b7330"/></g><rect x="137" y="92" width="3" height="42" rx="1" fill="#7b1e1e"/><rect x="147" y="92" width="3" height="42" rx="1" fill="#7b1e1e"/><rect x="157" y="92" width="3" height="42" rx="1" fill="#7b1e1e"/><rect class="glow ember" x="136" y="88" width="5" height="5" fill="#ff9c3a"/><rect class="glow ember" x="146" y="88" width="5" height="5" fill="#ff9c3a"/><rect class="glow ember" x="156" y="88" width="5" height="5" fill="#ff9c3a"/><g transform="translate(136 84)"><rect class="sm" width="4" height="4"/><rect class="sm" x="4" y="-8" width="4" height="4"/><animateTransform attributeName="transform" type="translate" values="136 84;144 58;136 32" dur="3.6s" begin="0s" repeatCount="indefinite"/><animate attributeName="opacity" values=".8;.4;0" dur="3.6s" begin="0s" repeatCount="indefinite"/></g><g transform="translate(146 84)"><rect class="sm" width="4" height="4"/><rect class="sm" x="4" y="-8" width="4" height="4"/><animateTransform attributeName="transform" type="translate" values="146 84;139 58;146 32" dur="3.6s" begin="1.4s" repeatCount="indefinite"/><animate attributeName="opacity" values=".8;.4;0" dur="3.6s" begin="1.4s" repeatCount="indefinite"/></g><g transform="translate(156 84)"><rect class="sm" width="4" height="4"/><rect class="sm" x="4" y="-8" width="4" height="4"/><animateTransform attributeName="transform" type="translate" values="156 84;162 58;156 32" dur="3.6s" begin="2.2s" repeatCount="indefinite"/><animate attributeName="opacity" values=".8;.4;0" dur="3.6s" begin="2.2s" repeatCount="indefinite"/></g><polygon class="rt" points="292,142 374,142 389,154 306,154"/><polygon class="rr" points="374,142 389,154 389,203 374,194"/><polygon class="rl" points="306,154 389,154 389,203 306,203"/><polygon fill="#792118" points="282,154 306,154 306,203 282,193"/><polygon fill="#d97158" points="306,136 374,136 389,142 292,142"/><rect x="326" y="144" width="34" height="4" fill="#22110d" rx="2"/><rect x="321" y="166" width="51" height="18" fill="#8d2317" stroke="#f1d071" stroke-width="2"/><text x="346" y="179" class="k" text-anchor="middle">功徳箱</text><rect x="294" y="203" width="84" height="6" fill="#6d1a14"/><rect x="300" y="209" width="10" height="10" fill="#4d100d"/><rect x="362" y="209" width="10" height="10" fill="#4d100d"/><g class="glow"><text x="332" y="110" class="f a">+1 徳</text><text x="338" y="122" class="f b">-1 バグ</text></g></g><text class="t g" x="225" y="238" text-anchor="middle">本日エンジニアが積んだ功徳: 1024</text></svg>